# xmcd
# 
# Track frame offsets:
#     150
#     27627
#     51467
#     75762
#     96745
#     123515
#     142125
# 
# Disc length: 2482
# 
# Revision: 4
# Processed by: cddbd v1.5.2PL0 Copyright (c) Steve Scherf et al.
# Submitted via: fre:ac v1.0.17
# 
DISCID=6509b007
DTITLE=Muddy Waters - Muddy "Mississippi" Waters Live (1)
DYEAR=2003
DGENRE=Blues
TTITLE0=Mannish Boy
TTITLE1=She's Nineteen Years Old
TTITLE2=Nine Below Zero
TTITLE3=Streamline Woman
TTITLE4=Howling Wolf
TTITLE5=Baby Please Don't Go
TTITLE6=Deep Down In Florida
EXTD=Muddy Waters (1915-1983) YEAR: 2003
EXTT0=
EXTT1=
EXTT2=
EXTT3=
EXTT4=
EXTT5=
EXTT6=
PLAYORDER=
